<svg version="1.0" fill="black" xmlns="http://www.w3.org/2000/svg" xmlns:xlink="http://www.w3.org/1999/xlink" x="0px" y="0px" width="255.1px" height="80px" viewBox="0 0 255.1 80" style="enable-background:new 0 0 255.1 80.4;" xml:space="preserve">
  <path fill-rule="evenodd" clip-rule="evenodd" id="XMLID_380_" d="M175.6,68.9c-2.4-0.5-1-1.3-1.4-3.3c-0.3-1.8-1.9-3.5-1.9-4.8c0.1-3.5,4.7-3.3,7.4-2.2
				c0.5,0.2,1.1,0.9,1.6,1.7c1.3,1.8,2.7,4.5,0.8,6.5C180.4,68.4,177.6,69.3,175.6,68.9" />
  <path fill-rule="evenodd" clip-rule="evenodd" id="XMLID_379_" d="M148.3,65.2c-0.1,0-0.2-0.1-0.2-0.1c0-0.3,0-0.5,0.1-0.8c0.7-0.3,7.3-4.5,7.3-4.7
				c1.9-1.5,3.6-3.2,4.1-5.6c-4.7,1.5-9.1,4.9-14,5.3c-2.2-0.6-3.8-1.8-5.4-2.5c0-0.1,0-0.2,0-0.3c-2.6-1.7-2.8-3.8,0-4.8
				c4.9,1.1,12.3-2.4,16.9-4.2c1-0.5,4-1.5,4.8-2.4c1.1-6.4,0.4-12.9,0.8-19.1c1.6-4.5,4.3-1.4,7.1,0.8c0.2,0.4,0.8,0.8,1.4,1.6
				c0.1,0,0.2,0,0.3,0c1.2,1.9,1.5,2.7-0.3,4.4c-1.2,3-1.8,6.4-1.7,9.9c3.4-0.5,5.4-3.4,9.3-3.5c0.9,1.8,0.8,3.3-0.9,4.8
				c-2.8,1.4-5.9,2.6-9.1,4c-0.7,3.3-2,7.2-4.3,9.9c-0.3,0.4-2,1.9-2.4,2.2c-2.1,1.2-3.9,2.7-6.2,3.3
				C149.5,65.3,149.4,65,148.3,65.2" />
  <path fill-rule="evenodd" clip-rule="evenodd" id="XMLID_378_" d="M88.1,76.2c-2.3-1.1-4.4-3.9-5.7-5.6c0.2-0.6,0.4-1.2,0.7-1.8C88.6,64.7,94,60.9,98.9,56
				c1.5-2.3,3.5-4.7,5.1-7c0.1,0,0.2-0.1,0.3-0.1c0-0.1,0-0.2,0-0.2c1.4-1.1,2-1.4,3.2,0.4c0.1,1.5-2.6,3.1-3.4,4.5
				c-1,2.7-2.2,5.4-3.6,8.1c-0.4,0.5-0.4,0.5-2.2,3.3c-1.5,1.1-3.4,4.1-4.2,5.9c-1.7,1-2.5,4-4.5,5.1C88.9,76.1,88.5,76.1,88.1,76.2
				" />
  <path fill-rule="evenodd" clip-rule="evenodd" id="XMLID_377_" d="M120.3,57.1c-3.4-0.1-4.3-2.3-6.2-4.3c-0.1-0.9,0.5-1.4,0.6-2c0.8-0.2,0.8-0.2,1.4-0.5
				c1.4-0.2,1.9-0.1,3.4-0.2c1.9-0.4,6.9-3.9,8.6-2.4C128.3,51.7,123.9,55.9,120.3,57.1" />
  <path fill-rule="evenodd" clip-rule="evenodd" id="XMLID_376_" d="M94.5,50.6c-1.3-1.1-1.5-6.3-1.6-8c1-2.9,3.9-3,6.3-1.1c1.9,2.5,3.3,3.6,1.2,6.6
				C98.1,50.1,97,50.2,94.5,50.6" />
  <path fill-rule="evenodd" clip-rule="evenodd" id="XMLID_375_" d="M119.4,48.1c-0.4-1.6,1.8-5,1.2-5.8c-0.8,0.1-1.6,0.4-2.5,0.5c-2-1-4.2-3.4-3.4-5.3
				c1.5-1.7,0.9-1.3,3.3-1.4c2.2-1,4.4-2,6.7-2.9c3.8-0.7,5.5,1.4,5.7,5.1c-0.7,2.4-2.3,4.3-3.8,6.2c-2,1.1-3.8,2.3-5.6,3.5
				C120.4,47.9,119.9,48,119.4,48.1" />
  <path fill-rule="evenodd" clip-rule="evenodd" id="XMLID_374_" d="M98.7,37.4c-0.8-0.7-0.5-1.1,0-1.8c-0.1-1.6-1-2.8-1.1-4.3c0.5-2.7,0-3.7,2.3-5.1
				c1.8,0.8,7.9,3.9,6.5,7.4C104.6,35.7,101.2,37.1,98.7,37.4" />
  <path fill-rule="evenodd" clip-rule="evenodd" id="XMLID_373_" d="M19.1,78.7c-3.7-1.4-6.9-8.6-2.4-10.4c0.1-0.6,0.7-1.3,1.2-1.5c0-0.1,0-0.2,0-0.3
				c3.5-3.4,5.9-8.2,8.9-12c0.8-1.4,1.2-2.8,2.8-3.2c0.8,0.7,0.5,2.4,0.3,3.6c0.4,0.3,1.6,0.1,2.4-0.2c2.5-2.1,5.7-4,8.1-6.2
				c0.1-1.1,0.3-2.2,0.4-3.2c-1.7,0.4-7.4,1.7-6-1.4c2.1-0.8,5.3-2.7,6.5-4.9c0.6-2.3,0.2-4.9,1.4-6.6c2.4-1.2,5.2,1.8,5.7,4.3
				c1,1.7,3.9-0.4,0.2,4.8c-0.8,0.6-0.7,1.7-0.6,2.9c0.3,0,0.5,0,0.8,0.1c2.1-1.5,4.3-3.1,6.7-4.5c0.6-3.3,1.2-6.1,2.8-8.9
				c2.3-1.6,5.4,0.1,7.7,1.9c1.7-0.1,2.8-0.8,4.4-2c0.6-0.2,0.6-0.2,1.8-0.2c0.5,0.8,0.6,1.7,0.7,2.9c-1.1,3.4-10.8,4.5-9,8.5
				c1.7-0.1,2.3-2,2.9-3.2c1.9-1,6,0.2,8,1.7c2.2,2.7,0.5,3.6-2,5.3c-0.2,0.4-0.5,0.7-0.7,1.1c-0.2,5.4-0.2,5.4-0.1,12.8
				c-0.8,2-1.4,3-3,4.6c0,0.1,0,0.2,0,0.2c-0.1,0-0.2,0-0.3,0c-0.9,1.6-3.2,3.3-4.6,1.7c0-6,0.3-12.3,0.1-18.1
				c-0.1,0-0.2,0.1-0.3,0.1c-0.4,2.9-3.4,8.5-5.9,10.3c-2.3,0.1-4.3-1.2-4.9-3.2c0.2-0.6,0.7-0.7,1.2-1.2c1.3-2.7,0.9-7.6,0.9-10.3
				c-1.9,0.3-5.1,4.5-6.5,6.1c-1,0.8-1.9,1.5-2.8,2.3c-0.7,2.2-1.2,4.5-1.8,6.9c-0.5,1.1-1,2.2-1.5,3.3c-0.1,0-0.2,0-0.3,0
				c-0.9,1.5-3.7,5.4-5.4,2.9c0-0.3,0-0.7,0-1c1.4-2.1,2.5-5,2.6-7.4c-2.3,0.8-3.9,2.9-6.2,3c-1.3-0.3-2.7-0.7-3.6-1.1
				c0-0.1,0-0.2,0-0.3c-0.6-0.4-1.1-0.9-1.5-0.7c-0.4,1.3-0.8,2.7-1.2,4c-2.4,5-4.1,9.9-5.7,15.4C20.3,78.4,20,78.5,19.1,78.7" />
  <path fill-rule="evenodd" clip-rule="evenodd" id="XMLID_372_" d="M23.6,50c-0.7-1,0.2-2.4,0.2-3.6c-1.1-3.4-2-6,0.1-8.8c0.3-0.1,0.7-0.1,1-0.1
				c1.6,1.1,3.8,3.6,5.2,5.5C31.9,46.9,26.6,48.8,23.6,50" />
  <path fill-rule="evenodd" clip-rule="evenodd" id="XMLID_371_" d="M26.9,36.7c-0.9-0.3-0.8-0.5-1-0.8c0.4-0.8,0.8-1.3,0.6-2.2c-2.1-3.2-2-8.1,1.6-9.7
				c1.1,0.1,1.1,1,1.5,2.5c2.4,2.3,6.7,5.1,2.6,8.2C30.6,35.5,28.7,36.1,26.9,36.7" />
  <path fill-rule="evenodd" clip-rule="evenodd" id="XMLID_370_" d="M201.6,49.3c-3.3-1-2.7-6.4-2.1-8.6c2.4-1.5,5.5,1.6,5.7,4.5
				C204.6,48.2,204.6,48.7,201.6,49.3" />
  <path fill-rule="evenodd" clip-rule="evenodd" id="XMLID_367_" d="M219.3,74.1c-0.1-0.1-0.2-0.1-0.3-0.2c-4.2,0.3-8.2-0.1-11.9-1.5c-0.2-0.3-0.2-0.3-0.2-0.8
				c2.2-1.3,5.3-0.9,7-3.3c0.3-1.8,0.5-3.4,0.3-4.9c-4.2,0.3-6.4,3.2-9.7,4.4c-2.8,0.2-7.8-2.4-8.7-4.6c0-3.6,0.8-2,4.6-2.2
				c4.6-0.8,9.2-3.5,13.7-5.4c0.9-0.7,0.9-0.7,1.5-0.9c1-3,1.7-3.5,4.8-4.2c1.2-0.6,1.2-0.6,4.8-2.8c0.1-0.3,0.2-0.7,0.3-1.1
				c-5.4,0.6-9.8,5-14.1,7.9c-2.1,0.6-3.8,0.2-5.3-0.4c-1,0.1-6.4,1.1-3.7-1.1c1.6-0.6,2.8-1.8,4.5-2.5c4.1-2.7,8.8-5.1,13.2-7.6
				c0-0.7-0.3-1.1-0.4-1.2c0-0.9,0.2-1.4,0.4-2.1c-0.8,0.3-1.1,0.2-1.2,0.8c-2.6,1.2-3.7,3.5-5.9,1c-0.6,2.3-2.2,3.9-4.5,4
				c-2.3-1.2-2.4-5.1-2.8-6.9c-0.2-0.2-0.5-1.7-1.1-3.5c-1.1-2.1-3-4.5-1.7-6.5c1.7-1,2.3-1.4,3.7,0.8c1.2,0.9,2.7,2.2,3.9,3.8
				c0.1,0,0.2,0,0.3,0c0.7,2,2.5,4.6,2.4,7.1c1.2-0.7,3-2.1,2.1-3.7c-2-1.1-0.9-3,0.5-3.7c1,0.1,1,0.1,2.3-0.1
				c0-0.5-0.1-0.5-0.3-0.8c-1.7-0.6-1.4-1-0.9-2.3c-2-0.7-2.7-2.8-1.9-4.2c5.7-1.4,5.7-1.4,8.3-2.3c1.8-2.2,3.7-8.2,7.1-7.1
				c1.1,1.3,1.8,3.4,1.6,5.5c-0.4,0.9-1,1.7-1.2,2.7c0.3,0,0.7,0,1,0c2.4-1.2,3.5-2.6,4.9,1c2.3,1.2,3.1,0.9,2.3,4.3
				c-1.7,3.3-3.5,6.9-5.3,10.3c0,0.2-0.1,0.3,0,0.5c0.4,0.1,0.9,0.2,1.3,0.3c0.2,1.5,0.3,3.4,0.2,5.2c-1.4,2.1-3.2,2.1-5.5,2.4
				c-2.9,1.4-5.5,2.6-8.2,4.3c0,0.5-0.1,1.1,0.2,1.8c1.4,0,2.8-0.1,4.2-0.1c1.6,1,1.4,3.8,0.5,5.5c-1.6,0.2-2.5,0.4-3.8,1.1
				c-0.1,0.8-0.3,1.5-0.4,2.4C222.2,66.1,223.8,73.4,219.3,74.1 M228.2,37c1.4-1.4,2.4-2.8,2.3-4.8c-1.2-1-3.2-1.2-4.4-1.1
				c-0.2,0.5-0.2,0.5-1.6,3.2c0.1,0.1,0.3,0.1,0.4,0.2c-0.1,0-0.3,0.1-0.4,0.2c0,0.1,0.1,0.1,0.1,0.3c0.6,0.1,1-0.4,1.2-0.8
				c2.2-0.4,2.2,0.4,2.1,2.8C228,36.9,228.1,36.9,228.2,37" />
</svg>